# xmcd CD database file
#
# Track frame offsets:
#	150
#	11000
#	28585
#	39497
#	52982
#	70072
#	85876
#	104004
#	123360
#	146746
#	158869
#	171411
#
# Disc length: 2440 seconds
#
# Revision: 0
# Processed by: cddbd v1.4PL0 Copyright (c) Steve Scherf et al.
# Submitted via: CDex 1.40Beta6
#
DISCID=a109860c
DTITLE=Various Artist - Legends In Their Own Time
DYEAR=2001
DGENRE=Country
TTITLE0=Rinnie Milsap - Pure Love
TTITLE1=Ronnie Milsap - Button Off Of My Shirt
TTITLE2=Ronnie Milsap - Day Dreams About Night Things
TTITLE3=Ronnie Milsap - A Legend In My Own Time
TTITLE4=Ronnnie Milsap - Smokey Mountain Rain
TTITLE5=Reba Mcintire - Why Haven't I Heard From You?
TTITLE6=Pam Tillis - Maybe It Was Memphis
TTITLE7=Restless Heart - Dancy's Dream
TTITLE8=Blue Rodeo - Bad Timing
TTITLE9=Patsy Cline - Crazy
TTITLE10=Patsy Cline - I Fall To Pieces
TTITLE11=Patsy Cline - Walking After Midnight
EXTD=
EXTT0=
EXTT1=
EXTT2=
EXTT3=
EXTT4=
EXTT5=
EXTT6=
EXTT7=
EXTT8=
EXTT9=
EXTT10=
EXTT11=
PLAYORDER=
